<svg width="124" height="50" viewBox="0 0 124 50" fill="none" xmlns="http://www.w3.org/2000/svg">
<path d="M45.5 15.1V34.3H41.8V15.1H45.5Z" fill="#5F6368"/>
<path d="M68.3 20.7C68.3 22.2 67.8 23.5 66.9 24.5C65.9 25.6 64.5 26.1 62.8 26.1C61.1 26.1 59.7 25.6 58.7 24.5C57.8 23.5 57.3 22.2 57.3 20.7C57.3 19.2 57.8 17.9 58.7 16.9C59.7 15.8 61.1 15.3 62.8 15.3C64.5 15.3 65.9 15.8 66.9 16.9C67.8 17.9 68.3 19.2 68.3 20.7ZM64.6 20.7C64.6 19.8 64.3 19.1 63.8 18.6C63.3 18.1 62.6 17.8 61.8 17.8C61 17.8 60.3 18.1 59.8 18.6C59.3 19.1 59 19.8 59 20.7C59 21.6 59.3 22.3 59.8 22.8C60.3 23.3 61 23.6 61.8 23.6C62.6 23.6 63.3 23.3 63.8 22.8C64.3 22.3 64.6 21.6 64.6 20.7Z" fill="#5F6368"/>
<path d="M88.7 15.5V33.7C88.7 37.2 86.8 39.2 83.2 39.2C79.9 39.2 77.8 37.3 77 34.8L80.4 33.5C80.9 35.1 82.3 36 83.2 36C84.5 36 85.2 35.2 85.2 33.7V32.5H85.1C84.4 33.4 83.2 34 81.8 34C79.7 34 77.7 32.3 77.7 29.2C77.7 26.1 79.7 24.4 81.8 24.4C83.2 24.4 84.4 25 85.1 25.9H85.2V24.8H88.7V15.5ZM85.4 29.2C85.4 27.8 84.6 26.9 83.5 26.9C82.4 26.9 81.5 27.8 81.5 29.2C81.5 30.6 82.4 31.5 83.5 31.5C84.6 31.5 85.4 30.6 85.4 29.2Z" fill="#5F6368"/>
<path d="M99.6 15.1V34.3H95.9V15.1H99.6Z" fill="#5F6368"/>
<path d="M115.8 25.4L119.6 27.2C118.6 29.3 116.4 31.5 112.7 31.5C108.3 31.5 105.2 28.2 105.2 23.7C105.2 19 108.4 15.7 112.3 15.7C116.3 15.7 118.5 19.1 119.2 21.3L119.5 22.1L109.3 25.9C110.1 27.5 111.2 28.4 112.7 28.4C114.2 28.4 115.2 27.6 115.8 25.4ZM108.9 23.6L115.5 21.2C115.1 20.1 114.1 19.6 112.5 19.6C110.6 19.6 108.3 21.2 108.9 23.6Z" fill="#5F6368"/>
<path d="M29.7 18.1C29.7 16.8 29.6 15.6 29.4 14.4H15.2V21.4H23.4C23 23.6 21.9 25.4 20.2 26.6V30.8H25.2C28.2 28 29.7 23.4 29.7 18.1Z" fill="#4285F4"/>
<path d="M15.2 35C19.4 35 23 33.6 25.2 30.8L20.2 26.6C18.8 27.6 17 28.2 15.2 28.2C11.2 28.2 7.8 25.4 6.5 21.6H1.3V25.9C3.5 30.3 8.9 35 15.2 35Z" fill="#34A853"/>
<path d="M6.5 21.6C6.1 20.6 6.1 19.4 6.5 18.4V14.1H1.3C-0.4 17.5 -0.4 21.5 1.3 24.9L6.5 21.6Z" fill="#FBBC04"/>
<path d="M15.2 11.8C17.1 11.8 18.8 12.5 20.1 13.7L24.6 9.2C22 6.8 18.4 5.5 15.2 5.5C8.9 5.5 3.5 10.2 1.3 14.6L6.5 18.9C7.8 15.1 11.2 11.8 15.2 11.8Z" fill="#EA4335"/>
</svg>